Coordinates
version=1
nRows=49
nColumns=12
inDegrees=yes

Units are S.I. units (second, meters, Newtons, ...)
Angles are in degrees

endheader
time	SC_y	SC_z	SC_x	AC_y	AC_z	AC_x	GH_y	GH_z	GH_yy	EL_x	PS_y
       0.0              -25.04        -0.3704          38.74          53.23          1.178          11.78         -9.397          17.69          119.2          58.15          99.55
    0.0368              -25.04        -0.3694          38.75          53.23          1.176          11.78           -9.4          17.69          119.2          58.16          99.54
   0.07359              -25.05        -0.3683          38.75          53.23          1.173          11.78         -9.403          17.69          119.2          58.17          99.53
    0.1104              -25.05        -0.3671          38.76          53.23           1.17          11.77         -9.406           17.7          119.2          58.17          99.52
    0.1472              -25.06        -0.3658          38.76          53.23          1.167          11.77          -9.41           17.7          119.2          58.18          99.51
     0.184              -25.06        -0.3645          38.77          53.23          1.164          11.77         -9.414           17.7          119.2          58.19           99.5
    0.2208              -25.07         -0.363          38.77          53.23          1.161          11.76         -9.418           17.7          119.2           58.2          99.48
    0.2576              -25.07        -0.3615          38.78          53.23          1.158          11.76         -9.422           17.7          119.2          58.21          99.47
    0.2944              -25.08        -0.3598          38.79          53.23          1.154          11.75         -9.426          17.71          119.2          58.22          99.45
    0.3312              -25.09        -0.3581          38.79          53.24           1.15          11.75         -9.431          17.71          119.2          58.23          99.44
     0.368               -25.1        -0.3562           38.8          53.24          1.145          11.74         -9.436          17.71          119.2          58.24          99.42
    0.4048               -25.1        -0.3541          38.81          53.24          1.141          11.74         -9.442          17.71          119.2          58.26           99.4
    0.4416              -25.11        -0.3519          38.82          53.24          1.136          11.73         -9.448          17.72          119.2          58.27          99.38
    0.4783              -25.12        -0.3495          38.83          53.24           1.13          11.73         -9.455          17.72          119.2          58.29          99.36
    0.5151              -25.13        -0.3469          38.84          53.25          1.124          11.72         -9.462          17.72          119.2           58.3          99.33
    0.5519              -25.15        -0.3441          38.86          53.25          1.118          11.71         -9.469          17.72          119.2          58.32          99.31
    0.5887              -25.16        -0.3411          38.87          53.25          1.111           11.7         -9.478          17.73          119.2          58.34          99.28
    0.6255              -25.17        -0.3378          38.88          53.25          1.104          11.69         -9.487          17.73          119.2          58.36          99.25
    0.6623              -25.19        -0.3342           38.9          53.26          1.095          11.68         -9.497          17.74          119.2          58.39          99.22
    0.6991               -25.2        -0.3302          38.92          53.26          1.086          11.67         -9.508          17.74          119.3          58.41          99.18
    0.7359              -25.22        -0.3258          38.93          53.27          1.077          11.66         -9.519          17.75          119.3          58.44          99.14
    0.7727              -25.24         -0.321          38.96          53.27          1.066          11.65         -9.533          17.75          119.3          58.47          99.09
    0.8095              -25.26        -0.3158          38.98          53.27          1.054          11.63         -9.547          17.76          119.3           58.5          99.05
    0.8463              -25.28        -0.3099           39.0          53.28           1.04          11.62         -9.563          17.77          119.3          58.54          98.99
    0.8831              -25.31        -0.3034          39.03          53.29          1.025           11.6         -9.581          17.78          119.3          58.58          98.93
    0.9199              -25.34        -0.2961          39.06          53.29          1.009          11.58         -9.601          17.78          119.3          58.63          98.86
    0.9567              -25.37         -0.288           39.1           53.3         0.9904          11.56         -9.623           17.8          119.3          58.68          98.79
    0.9935              -25.41        -0.2788          39.14          53.31         0.9696          11.53         -9.648          17.81          119.3          58.74           98.7
      1.03              -25.45        -0.2685          39.18          53.32         0.9461           11.5         -9.677          17.82          119.4          58.81          98.61
     1.067               -25.5        -0.2567          39.23          53.33         0.9193          11.47         -9.709          17.83          119.4          58.88           98.5
     1.104              -25.56        -0.2433          39.29          53.34         0.8888          11.43         -9.746          17.85          119.4          58.97          98.37
     1.141              -25.62        -0.2279          39.36          53.35         0.8538          11.39         -9.788          17.87          119.4          59.07          98.23
     1.177              -25.69        -0.2101          39.44          53.37         0.8134          11.34         -9.837          17.89          119.4          59.18          98.07
     1.214              -25.78        -0.1895          39.52          53.39         0.7665          11.29         -9.893          17.92          119.5          59.32          97.88
     1.251              -25.87        -0.1653          39.63          53.41         0.7115          11.22          -9.96          17.95          119.5          59.47          97.65
     1.288              -25.99        -0.1368          39.75          53.43         0.6467          11.14         -10.04          17.98          119.6          59.66          97.39
     1.325              -26.13         -0.103           39.9          53.46         0.5697          11.05         -10.13          18.03          119.6          59.87          97.07
     1.361              -26.29       -0.06238          40.07           53.5         0.4775          10.94         -10.24          18.08          119.7          60.13           96.7
     1.398              -26.49       -0.01328          40.29          53.54         0.3658           10.8         -10.38          18.14          119.8          60.45          96.24
     1.435              -26.74        0.04669          40.55           53.6         0.2295          10.64         -10.54          18.21          119.9          60.84          95.69
     1.472              -27.04         0.1207          40.87          53.66        0.06116          10.44         -10.74          18.31          120.0          61.31           95.0
     1.509              -27.42          0.213          41.27          53.75        -0.1487          10.18          -11.0          18.42          120.1          61.91          94.15
     1.545              -27.89         0.3293          41.77          53.85        -0.4131          9.863         -11.32          18.57          120.3          62.65          93.07
     1.582              -28.49         0.4771          42.41          53.98        -0.7492          9.457         -11.72          18.75          120.5           63.6           91.7
     1.619              -29.26         0.6663          43.23          54.15         -1.179          8.938         -12.24          18.99          120.9          64.82          89.95
     1.656              -30.25         0.9091          44.28          54.37         -1.731          8.272         -12.91          19.29          121.2          66.38           87.7
     1.693              -31.52          1.219          45.62          54.64         -2.437          7.421         -13.76          19.68          121.7          68.38          84.83
     1.729              -33.11          1.609          47.31          54.99         -3.323          6.351         -14.83          20.17          122.4          70.88          81.22
     1.766              -35.04          2.084          49.37          55.42         -4.404          5.047         -16.13          20.76          123.1          73.94          76.81
